<svg xmlns="http://www.w3.org/2000/svg" width="270.16" height="35" viewBox="0 0 270.16 35"><rect class="svg__rect" x="0" y="0" width="142.27" height="35" fill="#A7BFC1"/><rect class="svg__rect" x="140.27" y="0" width="129.89000000000001" height="35" fill="#389AD5"/><path class="svg__text" d="M15.78 22L14.31 22L14.31 13.47L15.78 13.47L15.78 22ZM20.32 18.00L20.32 18.00L20.32 17.52Q20.32 16.28 20.77 15.32Q21.21 14.37 22.01 13.86Q22.82 13.35 23.86 13.35Q24.90 13.35 25.71 13.85Q26.52 14.35 26.96 15.29Q27.39 16.23 27.40 17.48L27.40 17.48L27.40 17.96Q27.40 19.21 26.97 20.16Q26.53 21.10 25.73 21.61Q24.92 22.12 23.87 22.12L23.87 22.12Q22.84 22.12 22.02 21.61Q21.21 21.10 20.77 20.17Q20.33 19.23 20.32 18.00ZM21.81 17.46L21.81 17.96Q21.81 19.36 22.35 20.13Q22.90 20.90 23.87 20.90L23.87 20.90Q24.86 20.90 25.39 20.15Q25.92 19.40 25.92 17.96L25.92 17.96L25.92 17.51Q25.92 16.09 25.38 15.34Q24.85 14.58 23.86 14.58L23.86 14.58Q22.90 14.58 22.36 15.33Q21.82 16.09 21.81 17.46L21.81 17.46ZM31.43 19.42L31.43 19.42L32.91 19.42Q32.91 20.15 33.39 20.55Q33.88 20.95 34.77 20.95L34.77 20.95Q35.55 20.95 35.93 20.63Q36.32 20.32 36.32 19.80L36.32 19.80Q36.32 19.24 35.93 18.94Q35.53 18.63 34.50 18.32Q33.47 18.01 32.86 17.63L32.86 17.63Q31.70 16.90 31.70 15.72L31.70 15.72Q31.70 14.69 32.54 14.02Q33.38 13.35 34.72 13.35L34.72 13.35Q35.61 13.35 36.31 13.68Q37.00 14.01 37.40 14.61Q37.80 15.22 37.80 15.96L37.80 15.96L36.32 15.96Q36.32 15.29 35.91 14.91Q35.49 14.54 34.71 14.54L34.71 14.54Q33.98 14.54 33.58 14.85Q33.18 15.16 33.18 15.71L33.18 15.71Q33.18 16.18 33.61 16.50Q34.05 16.81 35.04 17.10Q36.04 17.40 36.64 17.78Q37.24 18.16 37.53 18.65Q37.81 19.13 37.81 19.79L37.81 19.79Q37.81 20.86 36.99 21.49Q36.17 22.12 34.77 22.12L34.77 22.12Q33.85 22.12 33.07 21.77Q32.29 21.43 31.86 20.83Q31.43 20.22 31.43 19.42ZM47.64 19.42L47.64 19.42L49.12 19.42Q49.12 20.15 49.60 20.55Q50.08 20.95 50.98 20.95L50.98 20.95Q51.75 20.95 52.14 20.63Q52.53 20.32 52.53 19.80L52.53 19.80Q52.53 19.24 52.14 18.94Q51.74 18.63 50.71 18.32Q49.68 18.01 49.07 17.63L49.07 17.63Q47.90 16.90 47.90 15.72L47.90 15.72Q47.90 14.69 48.74 14.02Q49.58 13.35 50.93 13.35L50.93 13.35Q51.82 13.35 52.51 13.68Q53.21 14.01 53.61 14.61Q54.01 15.22 54.01 15.96L54.01 15.96L52.53 15.96Q52.53 15.29 52.11 14.91Q51.69 14.54 50.91 14.54L50.91 14.54Q50.19 14.54 49.79 14.85Q49.39 15.16 49.39 15.71L49.39 15.71Q49.39 16.18 49.82 16.50Q50.25 16.81 51.25 17.10Q52.24 17.40 52.85 17.78Q53.45 18.16 53.73 18.65Q54.01 19.13 54.01 19.79L54.01 19.79Q54.01 20.86 53.20 21.49Q52.38 22.12 50.98 22.12L50.98 22.12Q50.05 22.12 49.28 21.77Q48.50 21.43 48.07 20.83Q47.64 20.22 47.64 19.42ZM59.79 22L58.30 22L58.30 13.47L59.79 13.47L59.79 17.02L63.60 17.02L63.60 13.47L65.08 13.47L65.08 22L63.60 22L63.60 18.21L59.79 18.21L59.79 22ZM69.55 18.00L69.55 18.00L69.55 17.52Q69.55 16.28 69.99 15.32Q70.43 14.37 71.24 13.86Q72.04 13.35 73.09 13.35Q74.13 13.35 74.93 13.85Q75.74 14.35 76.18 15.29Q76.62 16.23 76.63 17.48L76.63 17.48L76.63 17.96Q76.63 19.21 76.19 20.16Q75.76 21.10 74.95 21.61Q74.15 22.12 73.10 22.12L73.10 22.12Q72.06 22.12 71.25 21.61Q70.44 21.10 70.00 20.17Q69.55 19.23 69.55 18.00ZM71.03 17.46L71.03 17.96Q71.03 19.36 71.58 20.13Q72.13 20.90 73.10 20.90L73.10 20.90Q74.08 20.90 74.61 20.15Q75.14 19.40 75.14 17.96L75.14 17.96L75.14 17.51Q75.14 16.09 74.61 15.34Q74.07 14.58 73.09 14.58L73.09 14.58Q72.13 14.58 71.58 15.33Q71.04 16.09 71.03 17.46L71.03 17.46ZM82.57 22L81.09 22L81.09 13.47L84.09 13.47Q85.57 13.47 86.37 14.13Q87.17 14.79 87.17 16.05L87.17 16.05Q87.17 16.90 86.76 17.48Q86.35 18.06 85.61 18.37L85.61 18.37L87.52 21.92L87.52 22L85.94 22L84.22 18.71L82.57 18.71L82.57 22ZM82.57 14.66L82.57 17.52L84.10 17.52Q84.85 17.52 85.27 17.15Q85.69 16.77 85.69 16.11L85.69 16.11Q85.69 15.43 85.30 15.05Q84.91 14.68 84.14 14.66L84.14 14.66L82.57 14.66ZM93.25 14.66L90.61 14.66L90.61 13.47L97.38 13.47L97.38 14.66L94.72 14.66L94.72 22L93.25 22L93.25 14.66ZM100.87 18.19L100.87 18.19L100.87 17.39Q100.87 16.19 101.29 15.27Q101.72 14.35 102.52 13.85Q103.32 13.35 104.37 13.35L104.37 13.35Q105.78 13.35 106.64 14.12Q107.50 14.89 107.64 16.29L107.64 16.29L106.17 16.29Q106.06 15.37 105.63 14.96Q105.20 14.55 104.37 14.55L104.37 14.55Q103.40 14.55 102.88 15.26Q102.37 15.96 102.35 17.33L102.35 17.33L102.35 18.09Q102.35 19.47 102.85 20.20Q103.34 20.92 104.30 20.92L104.30 20.92Q105.17 20.92 105.61 20.53Q106.05 20.14 106.17 19.22L106.17 19.22L107.64 19.22Q107.52 20.59 106.64 21.35Q105.76 22.12 104.30 22.12L104.30 22.12Q103.28 22.12 102.50 21.63Q101.73 21.15 101.31 20.26Q100.88 19.37 100.87 18.19ZM111.82 19.16L111.82 19.16L111.82 13.47L113.30 13.47L113.30 19.18Q113.30 20.03 113.73 20.48Q114.17 20.93 115.01 20.93L115.01 20.93Q116.72 20.93 116.72 19.13L116.72 19.13L116.72 13.47L118.20 13.47L118.20 19.17Q118.20 20.53 117.33 21.32Q116.46 22.12 115.01 22.12L115.01 22.12Q113.55 22.12 112.68 21.33Q111.82 20.55 111.82 19.16ZM124.45 14.66L121.81 14.66L121.81 13.47L128.58 13.47L128.58 14.66L125.92 14.66L125.92 22L124.45 22L124.45 14.66Z" fill="#FFFFFF"/><path class="svg__text" d="M158.43 22L154.46 22L154.46 13.60L158.43 13.60Q159.81 13.60 160.88 14.12Q161.95 14.63 162.54 15.58Q163.12 16.53 163.12 17.80L163.12 17.80Q163.12 19.07 162.54 20.02Q161.95 20.97 160.88 21.48Q159.81 22 158.43 22L158.43 22ZM156.84 15.50L156.84 20.10L158.34 20.10Q159.41 20.10 160.07 19.49Q160.72 18.88 160.72 17.80L160.72 17.80Q160.72 16.72 160.07 16.11Q159.41 15.50 158.34 15.50L158.34 15.50L156.84 15.50ZM167.42 17.80L167.42 17.80Q167.42 16.55 168.03 15.55Q168.63 14.56 169.70 14.00Q170.76 13.43 172.09 13.43L172.09 13.43Q173.42 13.43 174.48 14.00Q175.55 14.56 176.15 15.55Q176.76 16.55 176.76 17.80L176.76 17.80Q176.76 19.05 176.15 20.04Q175.55 21.04 174.49 21.60Q173.42 22.17 172.09 22.17L172.09 22.17Q170.76 22.17 169.70 21.60Q168.63 21.04 168.03 20.04Q167.42 19.05 167.42 17.80ZM169.82 17.80L169.82 17.80Q169.82 18.51 170.12 19.05Q170.42 19.60 170.94 19.90Q171.46 20.20 172.09 20.20L172.09 20.20Q172.73 20.20 173.24 19.90Q173.76 19.60 174.06 19.05Q174.36 18.51 174.36 17.80L174.36 17.80Q174.36 17.09 174.06 16.54Q173.76 16 173.24 15.70Q172.73 15.40 172.09 15.40L172.09 15.40Q171.45 15.40 170.94 15.70Q170.42 16 170.12 16.54Q169.82 17.09 169.82 17.80ZM183.57 22L180.84 13.60L183.29 13.60L184.98 18.96L186.75 13.60L188.94 13.60L190.63 19.01L192.40 13.60L194.66 13.60L191.94 22L189.40 22L187.79 16.89L186.11 22L183.57 22ZM201.51 22L199.18 22L199.18 13.60L201.13 13.60L204.84 18.07L204.84 13.60L207.17 13.60L207.17 22L205.22 22L201.51 17.52L201.51 22ZM218.72 22L212.33 22L212.33 13.60L214.71 13.60L214.71 20.11L218.72 20.11L218.72 22ZM222.71 17.80L222.71 17.80Q222.71 16.55 223.31 15.55Q223.91 14.56 224.98 14.00Q226.04 13.43 227.37 13.43L227.37 13.43Q228.70 13.43 229.77 14.00Q230.83 14.56 231.44 15.55Q232.04 16.55 232.04 17.80L232.04 17.80Q232.04 19.05 231.44 20.04Q230.83 21.04 229.77 21.60Q228.71 22.17 227.37 22.17L227.37 22.17Q226.04 22.17 224.98 21.60Q223.91 21.04 223.31 20.04Q222.71 19.05 222.71 17.80ZM225.10 17.80L225.10 17.80Q225.10 18.51 225.41 19.05Q225.71 19.60 226.22 19.90Q226.74 20.20 227.37 20.20L227.37 20.20Q228.01 20.20 228.53 19.90Q229.04 19.60 229.34 19.05Q229.64 18.51 229.64 17.80L229.64 17.80Q229.64 17.09 229.34 16.54Q229.04 16 228.53 15.70Q228.01 15.40 227.37 15.40L227.37 15.40Q226.73 15.40 226.22 15.70Q225.71 16 225.41 16.54Q225.10 17.09 225.10 17.80ZM238.19 22L235.76 22L239.47 13.60L241.82 13.60L245.53 22L243.06 22L242.40 20.37L238.85 20.37L238.19 22ZM240.63 15.93L239.54 18.61L241.70 18.61L240.63 15.93ZM253.66 22L249.68 22L249.68 13.60L253.66 13.60Q255.04 13.60 256.11 14.12Q257.17 14.63 257.76 15.58Q258.35 16.53 258.35 17.80L258.35 17.80Q258.35 19.07 257.76 20.02Q257.17 20.97 256.11 21.48Q255.04 22 253.66 22L253.66 22ZM252.06 15.50L252.06 20.10L253.56 20.10Q254.64 20.10 255.29 19.49Q255.95 18.88 255.95 17.80L255.95 17.80Q255.95 16.72 255.29 16.11Q254.64 15.50 253.56 15.50L253.56 15.50L252.06 15.50Z" fill="#FFFFFF" x="153.27"/></svg>