<svg xmlns="http://www.w3.org/2000/svg" width="277.66" height="35" viewBox="0 0 277.66 35"><rect class="svg__rect" x="0" y="0" width="149.77" height="35" fill="#A7BFC1"/><rect class="svg__rect" x="147.77" y="0" width="129.89000000000001" height="35" fill="#389AD5"/><path class="svg__text" d="M15.69 22L14.22 22L14.22 13.47L16.14 13.47L18.60 20.01L21.06 13.47L22.97 13.47L22.97 22L21.49 22L21.49 19.19L21.64 15.43L19.12 22L18.06 22L15.55 15.43L15.69 19.19L15.69 22ZM28.49 22L26.95 22L30.17 13.47L31.50 13.47L34.73 22L33.18 22L32.49 20.01L29.18 20.01L28.49 22ZM30.83 15.28L29.60 18.82L32.07 18.82L30.83 15.28ZM38.42 18.19L38.42 18.19L38.42 17.39Q38.42 16.19 38.84 15.27Q39.27 14.35 40.07 13.85Q40.87 13.35 41.92 13.35L41.92 13.35Q43.33 13.35 44.19 14.12Q45.06 14.89 45.20 16.29L45.20 16.29L43.72 16.29Q43.61 15.37 43.18 14.96Q42.75 14.55 41.92 14.55L41.92 14.55Q40.95 14.55 40.43 15.26Q39.92 15.96 39.90 17.33L39.90 17.33L39.90 18.09Q39.90 19.47 40.40 20.20Q40.89 20.92 41.85 20.92L41.85 20.92Q42.72 20.92 43.16 20.53Q43.60 20.14 43.72 19.22L43.72 19.22L45.20 19.22Q45.07 20.59 44.19 21.35Q43.31 22.12 41.85 22.12L41.85 22.12Q40.83 22.12 40.05 21.63Q39.28 21.15 38.86 20.26Q38.43 19.37 38.42 18.19ZM55.05 19.42L55.05 19.42L56.53 19.42Q56.53 20.15 57.01 20.55Q57.49 20.95 58.39 20.95L58.39 20.95Q59.16 20.95 59.55 20.63Q59.94 20.32 59.94 19.80L59.94 19.80Q59.94 19.24 59.55 18.94Q59.15 18.63 58.12 18.32Q57.09 18.01 56.48 17.63L56.48 17.63Q55.31 16.90 55.31 15.72L55.31 15.72Q55.31 14.69 56.16 14.02Q57.00 13.35 58.34 13.35L58.34 13.35Q59.23 13.35 59.93 13.68Q60.62 14.01 61.02 14.61Q61.42 15.22 61.42 15.96L61.42 15.96L59.94 15.96Q59.94 15.29 59.52 14.91Q59.11 14.54 58.33 14.54L58.33 14.54Q57.60 14.54 57.20 14.85Q56.80 15.16 56.80 15.71L56.80 15.71Q56.80 16.18 57.23 16.50Q57.66 16.81 58.66 17.10Q59.66 17.40 60.26 17.78Q60.86 18.16 61.14 18.65Q61.43 19.13 61.43 19.79L61.43 19.79Q61.43 20.86 60.61 21.49Q59.79 22.12 58.39 22.12L58.39 22.12Q57.47 22.12 56.69 21.77Q55.91 21.43 55.48 20.83Q55.05 20.22 55.05 19.42ZM67.20 22L65.72 22L65.72 13.47L67.20 13.47L67.20 17.02L71.01 17.02L71.01 13.47L72.49 13.47L72.49 22L71.01 22L71.01 18.21L67.20 18.21L67.20 22ZM76.96 18.00L76.96 18.00L76.96 17.52Q76.96 16.28 77.40 15.32Q77.84 14.37 78.65 13.86Q79.46 13.35 80.50 13.35Q81.54 13.35 82.35 13.85Q83.15 14.35 83.59 15.29Q84.03 16.23 84.04 17.48L84.04 17.48L84.04 17.96Q84.04 19.21 83.60 20.16Q83.17 21.10 82.36 21.61Q81.56 22.12 80.51 22.12L80.51 22.12Q79.47 22.12 78.66 21.61Q77.85 21.10 77.41 20.17Q76.97 19.23 76.96 18.00ZM78.44 17.46L78.44 17.96Q78.44 19.36 78.99 20.13Q79.54 20.90 80.51 20.90L80.51 20.90Q81.49 20.90 82.02 20.15Q82.56 19.40 82.56 17.96L82.56 17.96L82.56 17.51Q82.56 16.09 82.02 15.34Q81.48 14.58 80.50 14.58L80.50 14.58Q79.54 14.58 79.00 15.33Q78.45 16.09 78.44 17.46L78.44 17.46ZM89.98 22L88.50 22L88.50 13.47L91.50 13.47Q92.98 13.47 93.78 14.13Q94.58 14.79 94.58 16.05L94.58 16.05Q94.58 16.90 94.17 17.48Q93.76 18.06 93.02 18.37L93.02 18.37L94.94 21.92L94.94 22L93.35 22L91.64 18.71L89.98 18.71L89.98 22ZM89.98 14.66L89.98 17.52L91.51 17.52Q92.26 17.52 92.68 17.15Q93.10 16.77 93.10 16.11L93.10 16.11Q93.10 15.43 92.71 15.05Q92.32 14.68 91.55 14.66L91.55 14.66L89.98 14.66ZM100.66 14.66L98.02 14.66L98.02 13.47L104.79 13.47L104.79 14.66L102.13 14.66L102.13 22L100.66 22L100.66 14.66ZM108.28 18.19L108.28 18.19L108.28 17.39Q108.28 16.19 108.71 15.27Q109.13 14.35 109.93 13.85Q110.73 13.35 111.78 13.35L111.78 13.35Q113.19 13.35 114.06 14.12Q114.92 14.89 115.06 16.29L115.06 16.29L113.58 16.29Q113.47 15.37 113.04 14.96Q112.61 14.55 111.78 14.55L111.78 14.55Q110.81 14.55 110.30 15.26Q109.78 15.96 109.77 17.33L109.77 17.33L109.77 18.09Q109.77 19.47 110.26 20.20Q110.76 20.92 111.71 20.92L111.71 20.92Q112.58 20.92 113.02 20.53Q113.46 20.14 113.58 19.22L113.58 19.22L115.06 19.22Q114.93 20.59 114.05 21.35Q113.17 22.12 111.71 22.12L111.71 22.12Q110.69 22.12 109.92 21.63Q109.14 21.15 108.72 20.26Q108.30 19.37 108.28 18.19ZM119.23 19.16L119.23 19.16L119.23 13.47L120.71 13.47L120.71 19.18Q120.71 20.03 121.14 20.48Q121.58 20.93 122.42 20.93L122.42 20.93Q124.13 20.93 124.13 19.13L124.13 19.13L124.13 13.47L125.61 13.47L125.61 19.17Q125.61 20.53 124.74 21.32Q123.87 22.12 122.42 22.12L122.42 22.12Q120.96 22.12 120.10 21.33Q119.23 20.55 119.23 19.16ZM131.86 14.66L129.22 14.66L129.22 13.47L135.99 13.47L135.99 14.66L133.33 14.66L133.33 22L131.86 22L131.86 14.66Z" fill="#FFFFFF"/><path class="svg__text" d="M165.93 22L161.96 22L161.96 13.60L165.93 13.60Q167.31 13.60 168.38 14.12Q169.45 14.63 170.04 15.58Q170.62 16.53 170.62 17.80L170.62 17.80Q170.62 19.07 170.04 20.02Q169.45 20.97 168.38 21.48Q167.31 22 165.93 22L165.93 22ZM164.34 15.50L164.34 20.10L165.84 20.10Q166.91 20.10 167.57 19.49Q168.22 18.88 168.22 17.80L168.22 17.80Q168.22 16.72 167.57 16.11Q166.91 15.50 165.84 15.50L165.84 15.50L164.34 15.50ZM174.92 17.80L174.92 17.80Q174.92 16.55 175.53 15.55Q176.13 14.56 177.20 14.00Q178.26 13.43 179.59 13.43L179.59 13.43Q180.92 13.43 181.98 14.00Q183.05 14.56 183.65 15.55Q184.26 16.55 184.26 17.80L184.26 17.80Q184.26 19.05 183.65 20.04Q183.05 21.04 181.99 21.60Q180.92 22.17 179.59 22.17L179.59 22.17Q178.26 22.17 177.20 21.60Q176.13 21.04 175.53 20.04Q174.92 19.05 174.92 17.80ZM177.32 17.80L177.32 17.80Q177.32 18.51 177.62 19.05Q177.92 19.60 178.44 19.90Q178.96 20.20 179.59 20.20L179.59 20.20Q180.23 20.20 180.74 19.90Q181.26 19.60 181.56 19.05Q181.86 18.51 181.86 17.80L181.86 17.80Q181.86 17.09 181.56 16.54Q181.26 16 180.74 15.70Q180.23 15.40 179.59 15.40L179.59 15.40Q178.95 15.40 178.44 15.70Q177.92 16 177.62 16.54Q177.32 17.09 177.32 17.80ZM191.07 22L188.34 13.60L190.79 13.60L192.48 18.96L194.25 13.60L196.44 13.60L198.13 19.01L199.90 13.60L202.16 13.60L199.44 22L196.90 22L195.29 16.89L193.61 22L191.07 22ZM209.01 22L206.68 22L206.68 13.60L208.63 13.60L212.34 18.07L212.34 13.60L214.67 13.60L214.67 22L212.72 22L209.01 17.52L209.01 22ZM226.22 22L219.83 22L219.83 13.60L222.21 13.60L222.21 20.11L226.22 20.11L226.22 22ZM230.21 17.80L230.21 17.80Q230.21 16.55 230.81 15.55Q231.41 14.56 232.48 14.00Q233.54 13.43 234.87 13.43L234.87 13.43Q236.20 13.43 237.27 14.00Q238.33 14.56 238.94 15.55Q239.54 16.55 239.54 17.80L239.54 17.80Q239.54 19.05 238.94 20.04Q238.33 21.04 237.27 21.60Q236.21 22.17 234.87 22.17L234.87 22.17Q233.54 22.17 232.48 21.60Q231.41 21.04 230.81 20.04Q230.21 19.05 230.21 17.80ZM232.60 17.80L232.60 17.80Q232.60 18.51 232.91 19.05Q233.21 19.60 233.72 19.90Q234.24 20.20 234.87 20.20L234.87 20.20Q235.51 20.20 236.03 19.90Q236.54 19.60 236.84 19.05Q237.14 18.51 237.14 17.80L237.14 17.80Q237.14 17.09 236.84 16.54Q236.54 16 236.03 15.70Q235.51 15.40 234.87 15.40L234.87 15.40Q234.23 15.40 233.72 15.70Q233.21 16 232.91 16.54Q232.60 17.09 232.60 17.80ZM245.69 22L243.26 22L246.97 13.60L249.32 13.60L253.03 22L250.56 22L249.90 20.37L246.35 20.37L245.69 22ZM248.13 15.93L247.04 18.61L249.20 18.61L248.13 15.93ZM261.16 22L257.18 22L257.18 13.60L261.16 13.60Q262.54 13.60 263.61 14.12Q264.67 14.63 265.26 15.58Q265.85 16.53 265.85 17.80L265.85 17.80Q265.85 19.07 265.26 20.02Q264.67 20.97 263.61 21.48Q262.54 22 261.16 22L261.16 22ZM259.56 15.50L259.56 20.10L261.06 20.10Q262.14 20.10 262.79 19.49Q263.45 18.88 263.45 17.80L263.45 17.80Q263.45 16.72 262.79 16.11Q262.14 15.50 261.06 15.50L261.06 15.50L259.56 15.50Z" fill="#FFFFFF" x="160.77"/></svg>